<?xml version="1.0" encoding="UTF-8"?>
<svg width="123px" height="40px" viewBox="0 0 123 40" version="1.1" xmlns="http://www.w3.org/2000/svg" xmlns:xlink="http://www.w3.org/1999/xlink">
    <defs>
        <polygon id="path-1" points="0 0 122.926829 0 122.926829 40 0 40"></polygon>
    </defs>
    <g id="Symbols" stroke="none" stroke-width="1" fill="none" fill-rule="evenodd">
        <g id="Navigation/MainMenu/Home" transform="translate(-70.000000, -70.000000)">
            <g id="Group-3" transform="translate(70.000000, 70.000000)">
                <mask id="mask-2" fill="white">
                    <use xlink:href="#path-1"></use>
                </mask>
                <g id="Clip-2"></g>
                <path d="M11.4968162,3.91507547 C11.4968162,6.07730871 9.76243789,7.83015095 7.62298094,7.83015095 C5.483524,7.83015095 3.74914566,6.07730871 3.74914566,3.91507547 C3.74914566,1.75284223 5.483524,0 7.62298094,0 C9.76243789,0 11.4968162,1.75284223 11.4968162,3.91507547 L11.4968162,3.91507547 Z M68.6851119,29.3080569 L72.9423406,32.9805221 C73.1238453,33.1372216 73.1633123,33.4096376 73.0275632,33.6079774 C70.3852277,37.465633 65.9794556,40 60.9706196,40 C52.9315006,40 46.350708,33.3489302 46.350708,25.184341 C46.350708,16.980303 52.9315006,10.4087883 60.9706196,10.4087883 C64.9559165,10.4087883 68.5586874,11.9952881 71.1964691,14.578747 C71.3794918,14.7580199 71.3805761,15.0558584 71.2053601,15.2430211 L67.488959,19.2060926 C67.3057194,19.4015834 66.9921522,19.4085966 66.812816,19.2095992 C65.4217136,17.6656165 63.4099822,16.7411994 60.9706196,16.7411994 C56.0489578,16.7411994 52.8905157,20.5598444 53.09891,25.6568501 C53.2825832,30.1562063 56.8660543,33.7859354 61.3186663,33.6213462 C64.3829949,33.5078213 66.7358337,31.8954606 67.9699356,29.4467852 C68.1056846,29.1774375 68.4576346,29.1119086 68.6851119,29.3080569 L68.6851119,29.3080569 Z M0.46839925,17.2989617 C0.209695405,17.2989617 0,17.0870339 0,16.8257951 L0,11.4394981 C0,11.1782593 0.209695405,10.9661124 0.46839925,10.9661124 L10.8592728,10.9661124 C11.1177598,10.9661124 11.3274552,11.1780402 11.3274552,11.4394981 L11.3274552,17.7957976 L11.3274552,38.9298414 C11.3274552,39.1910802 11.1177598,39.403008 10.8592728,39.403008 L5.05676024,39.403008 C4.79827324,39.403008 4.58857784,39.1910802 4.58857784,38.9298414 L4.58857784,17.2989617 L0.46839925,17.2989617 Z M93.0772197,10.9661124 C93.3359235,10.9661124 93.5456189,11.1782593 93.5456189,11.4394981 L93.5456189,16.8257951 C93.5456189,17.0870339 93.3359235,17.2989617 93.0772197,17.2989617 L87.0038596,17.2989617 L87.0038596,38.9294031 C87.0038596,39.1906419 86.794381,39.4025697 86.535894,39.4025697 L80.7476937,39.4025697 C80.4892067,39.4025697 80.2795113,39.1906419 80.2795113,38.9294031 L80.2795113,17.2989617 L74.2061512,17.2989617 C73.9476642,17.2989617 73.7379688,17.0870339 73.7379688,16.8257951 L73.7379688,11.4394981 C73.7379688,11.1782593 73.9476642,10.9661124 74.2061512,10.9661124 L93.0772197,10.9661124 Z M108.267451,33.6277018 C103.49932,33.6277018 100.385983,30.0034518 100.385983,25.184341 C100.385983,20.3255623 103.49932,16.7411994 108.267451,16.7411994 C113.075049,16.7411994 116.227636,20.3255623 116.227636,25.184341 C116.227636,30.0034518 113.075049,33.6277018 108.267451,33.6277018 L108.267451,33.6277018 Z M108.267451,10.4087883 C100.228332,10.4087883 93.6475391,16.9800838 93.6475391,25.184341 C93.6475391,33.3489302 100.228332,40 108.267451,40 C116.38507,40 122.926829,33.3489302 122.926829,25.184341 C122.926829,16.9800838 116.38507,10.4087883 108.267451,10.4087883 L108.267451,10.4087883 Z M29.060487,33.6277018 C24.2921392,33.6277018 21.179019,30.0034518 21.179019,25.184341 C21.179019,20.3255623 24.2921392,16.7411994 29.060487,16.7411994 C33.867868,16.7411994 37.0204552,20.3255623 37.0204552,25.184341 C37.0204552,30.0034518 33.867868,33.6277018 29.060487,33.6277018 L29.060487,33.6277018 Z M29.060487,10.4087883 C21.0211512,10.4087883 14.4403585,16.9800838 14.4403585,25.184341 C14.4403585,33.3489302 21.0211512,40 29.060487,40 C37.1781062,40 43.7196487,33.3489302 43.7196487,25.184341 C43.7196487,16.9800838 37.1781062,10.4087883 29.060487,10.4087883 L29.060487,10.4087883 Z" id="Fill-1" fill="#00C7B1" mask="url(#mask-2)"></path>
            </g>
        </g>
    </g>
</svg>
